<svg xmlns="http://www.w3.org/2000/svg" width="64" height="64" viewBox="0 0 64 64">
  <defs>
    <linearGradient id="bg-gradient" x1="0%" y1="0%" x2="100%" y2="100%">
      <stop offset="0%" stop-color="#06b6d4" />
      <stop offset="100%" stop-color="#2563eb" />
    </linearGradient>
  </defs>
  <rect width="64" height="64" rx="16" fill="url(#bg-gradient)" />
  <g transform="translate(16, 16) scale(1.333)" fill="none" stroke="#000000" stroke-width="2.5" stroke-linecap="round" stroke-linejoin="round">
    <path d="M21 10V8a2 2 0 0 0-1-1.73l-7-4a2 2 0 0 0-2 0l-7 4A2 2 0 0 0 3 8v8a2 2 0 0 0 1 1.73l7 4a2 2 0 0 0 2 0l2-1.14"/>
    <path d="m7.5 4.27 9 5.15"/>
    <polyline points="3.29 7 12 12 20.71 7"/>
    <line x1="12" x2="12" y1="22" y2="12"/>
    <circle cx="18.5" cy="15.5" r="2.5"/>
    <path d="M20.27 17.27 22 19"/>
  </g>
</svg>